{
 "cells": [
  {
   "cell_type": "markdown",
   "id": "7d30043b",
   "metadata": {},
   "source": [
    "## VMAF"
   ]
  },
  {
   "cell_type": "code",
   "execution_count": 1,
   "id": "34644f41",
   "metadata": {
    "scrolled": true
   },
   "outputs": [
    {
     "name": "stderr",
     "output_type": "stream",
     "text": [
      "ffmpeg version N-106635-g83e1a1de88 Copyright (c) 2000-2022 the FFmpeg developers\n",
      "  built with gcc 9 (Ubuntu 9.4.0-1ubuntu1~20.04.1)\n",
      "  configuration: --prefix=/home/ubuntu/ffmpeg_build --pkg-config-flags=--static --extra-cflags=-I/home/ubuntu/ffmpeg_build/include --extra-ldflags=-L/home/ubuntu/ffmpeg_build/lib --extra-libs='-lpthread -lm' --ld=g++ --bindir=/home/ubuntu/bin --enable-gpl --enable-gnutls --enable-libaom --enable-libass --enable-libfdk-aac --enable-libfreetype --enable-libmp3lame --enable-libopus --enable-libsvtav1 --enable-libdav1d --enable-libvorbis --enable-libvpx --enable-libx264 --enable-libx265 --enable-libvmaf --enable-version3 --enable-nonfree\n",
      "  libavutil      57. 24.101 / 57. 24.101\n",
      "  libavcodec     59. 26.100 / 59. 26.100\n",
      "  libavformat    59. 22.100 / 59. 22.100\n",
      "  libavdevice    59.  6.100 / 59.  6.100\n",
      "  libavfilter     8. 33.100 /  8. 33.100\n",
      "  libswscale      6.  6.100 /  6.  6.100\n",
      "  libswresample   4.  6.100 /  4.  6.100\n",
      "  libpostproc    56.  5.100 / 56.  5.100\n",
      "[rawvideo @ 0x5624672185c0] Estimating duration from bitrate, this may be inaccurate\n",
      "Input #0, rawvideo, from 'test_vids/refs/smithy.yuv':\n",
      "  Duration: 00:00:30.00, start: 0.000000, bitrate: 4976640 kb/s\n",
      "  Stream #0:0: Video: rawvideo (I420 / 0x30323449), yuv420p, 3840x2160, 4976640 kb/s, 50 tbr, 50 tbn\n",
      "Input #1, mov,mp4,m4a,3gp,3g2,mj2, from 'test_vids/encoded/smithyHEVC_cf22.mp4':\n",
      "  Metadata:\n",
      "    major_brand     : isom\n",
      "    minor_version   : 512\n",
      "    compatible_brands: isomiso2mp41\n",
      "    encoder         : Lavf59.22.100\n",
      "  Duration: 00:00:30.00, start: 0.000000, bitrate: 32872 kb/s\n",
      "  Stream #1:0[0x1](und): Video: hevc (Main) (hev1 / 0x31766568), yuv420p(tv, progressive), 3840x2160, 32866 kb/s, 50 fps, 50 tbr, 12800 tbn (default)\n",
      "    Metadata:\n",
      "      handler_name    : VideoHandler\n",
      "      vendor_id       : [0][0][0][0]\n",
      "Stream mapping:\n",
      "  Stream #0:0 (rawvideo) -> setpts:default\n",
      "  Stream #1:0 (hevc) -> scale:default\n",
      "  libvmaf:default -> Stream #0:0 (wrapped_avframe)\n",
      "Press [q] to stop, [?] for help\n",
      "Output #0, null, to 'pipe:':\n",
      "  Metadata:\n",
      "    encoder         : Lavf59.22.100\n",
      "  Stream #0:0: Video: wrapped_avframe, yuv420p(tv, progressive), 3840x2160, q=2-31, 200 kb/s, 50 fps, 50 tbn\n",
      "    Metadata:\n",
      "      encoder         : Lavc59.26.100 wrapped_avframe\n",
      "frame= 1500 fps=2.5 q=-0.0 Lsize=N/A time=00:00:30.00 bitrate=N/A speed=0.0494x    \n",
      "video:691kB audio:0kB subtitle:0kB other streams:0kB global headers:0kB muxing overhead: unknown\n",
      "[Parsed_libvmaf_3 @ 0x562469f18600] VMAF score: 90.951493\n",
      "ffmpeg version N-106635-g83e1a1de88 Copyright (c) 2000-2022 the FFmpeg developers\n",
      "  built with gcc 9 (Ubuntu 9.4.0-1ubuntu1~20.04.1)\n",
      "  configuration: --prefix=/home/ubuntu/ffmpeg_build --pkg-config-flags=--static --extra-cflags=-I/home/ubuntu/ffmpeg_build/include --extra-ldflags=-L/home/ubuntu/ffmpeg_build/lib --extra-libs='-lpthread -lm' --ld=g++ --bindir=/home/ubuntu/bin --enable-gpl --enable-gnutls --enable-libaom --enable-libass --enable-libfdk-aac --enable-libfreetype --enable-libmp3lame --enable-libopus --enable-libsvtav1 --enable-libdav1d --enable-libvorbis --enable-libvpx --enable-libx264 --enable-libx265 --enable-libvmaf --enable-version3 --enable-nonfree\n",
      "  libavutil      57. 24.101 / 57. 24.101\n",
      "  libavcodec     59. 26.100 / 59. 26.100\n",
      "  libavformat    59. 22.100 / 59. 22.100\n",
      "  libavdevice    59.  6.100 / 59.  6.100\n",
      "  libavfilter     8. 33.100 /  8. 33.100\n",
      "  libswscale      6.  6.100 /  6.  6.100\n",
      "  libswresample   4.  6.100 /  4.  6.100\n",
      "  libpostproc    56.  5.100 / 56.  5.100\n",
      "[rawvideo @ 0x55da7f2745c0] Estimating duration from bitrate, this may be inaccurate\n",
      "Input #0, rawvideo, from 'test_vids/refs/smithy.yuv':\n",
      "  Duration: 00:00:30.00, start: 0.000000, bitrate: 4976640 kb/s\n",
      "  Stream #0:0: Video: rawvideo (I420 / 0x30323449), yuv420p, 3840x2160, 4976640 kb/s, 50 tbr, 50 tbn\n",
      "Input #1, mov,mp4,m4a,3gp,3g2,mj2, from 'test_vids/encoded/smithyAVC_cf10.mp4':\n",
      "  Metadata:\n",
      "    major_brand     : isom\n",
      "    minor_version   : 512\n",
      "    compatible_brands: isomiso2avc1mp41\n",
      "    encoder         : Lavf59.22.100\n",
      "  Duration: 00:00:30.00, start: 0.000000, bitrate: 165744 kb/s\n",
      "  Stream #1:0[0x1](und): Video: h264 (High) (avc1 / 0x31637661), yuv420p(progressive), 3840x2160, 165736 kb/s, 50 fps, 50 tbr, 12800 tbn (default)\n",
      "    Metadata:\n",
      "      handler_name    : VideoHandler\n",
      "      vendor_id       : [0][0][0][0]\n",
      "Stream mapping:\n",
      "  Stream #0:0 (rawvideo) -> setpts:default\n",
      "  Stream #1:0 (h264) -> scale:default\n",
      "  libvmaf:default -> Stream #0:0 (wrapped_avframe)\n",
      "Press [q] to stop, [?] for help\n",
      "Output #0, null, to 'pipe:':\n",
      "  Metadata:\n",
      "    encoder         : Lavf59.22.100\n",
      "  Stream #0:0: Video: wrapped_avframe, yuv420p(progressive), 3840x2160, q=2-31, 200 kb/s, 50 fps, 50 tbn\n",
      "    Metadata:\n",
      "      encoder         : Lavc59.26.100 wrapped_avframe\n",
      "frame= 1500 fps=2.4 q=-0.0 Lsize=N/A time=00:00:30.00 bitrate=N/A speed=0.0486x    \n",
      "video:691kB audio:0kB subtitle:0kB other streams:0kB global headers:0kB muxing overhead: unknown\n",
      "[Parsed_libvmaf_3 @ 0x55da81408880] VMAF score: 96.354193\n",
      "ffmpeg version N-106635-g83e1a1de88 Copyright (c) 2000-2022 the FFmpeg developers\n",
      "  built with gcc 9 (Ubuntu 9.4.0-1ubuntu1~20.04.1)\n",
      "  configuration: --prefix=/home/ubuntu/ffmpeg_build --pkg-config-flags=--static --extra-cflags=-I/home/ubuntu/ffmpeg_build/include --extra-ldflags=-L/home/ubuntu/ffmpeg_build/lib --extra-libs='-lpthread -lm' --ld=g++ --bindir=/home/ubuntu/bin --enable-gpl --enable-gnutls --enable-libaom --enable-libass --enable-libfdk-aac --enable-libfreetype --enable-libmp3lame --enable-libopus --enable-libsvtav1 --enable-libdav1d --enable-libvorbis --enable-libvpx --enable-libx264 --enable-libx265 --enable-libvmaf --enable-version3 --enable-nonfree\n",
      "  libavutil      57. 24.101 / 57. 24.101\n",
      "  libavcodec     59. 26.100 / 59. 26.100\n",
      "  libavformat    59. 22.100 / 59. 22.100\n",
      "  libavdevice    59.  6.100 / 59.  6.100\n",
      "  libavfilter     8. 33.100 /  8. 33.100\n",
      "  libswscale      6.  6.100 /  6.  6.100\n",
      "  libswresample   4.  6.100 /  4.  6.100\n",
      "  libpostproc    56.  5.100 / 56.  5.100\n",
      "[rawvideo @ 0x5609f0b1a5c0] Estimating duration from bitrate, this may be inaccurate\n",
      "Input #0, rawvideo, from 'test_vids/refs/smithy.yuv':\n",
      "  Duration: 00:00:30.00, start: 0.000000, bitrate: 4976640 kb/s\n",
      "  Stream #0:0: Video: rawvideo (I420 / 0x30323449), yuv420p, 3840x2160, 4976640 kb/s, 50 tbr, 50 tbn\n",
      "Input #1, mov,mp4,m4a,3gp,3g2,mj2, from 'test_vids/encoded/smithyHEVC_cf28.mp4':\n",
      "  Metadata:\n",
      "    major_brand     : isom\n",
      "    minor_version   : 512\n",
      "    compatible_brands: isomiso2mp41\n",
      "    encoder         : Lavf59.22.100\n",
      "  Duration: 00:00:30.00, start: 0.000000, bitrate: 14223 kb/s\n",
      "  Stream #1:0[0x1](und): Video: hevc (Main) (hev1 / 0x31766568), yuv420p(tv, progressive), 3840x2160, 14216 kb/s, 50 fps, 50 tbr, 12800 tbn (default)\n",
      "    Metadata:\n",
      "      handler_name    : VideoHandler\n",
      "      vendor_id       : [0][0][0][0]\n",
      "Stream mapping:\n",
      "  Stream #0:0 (rawvideo) -> setpts:default\n",
      "  Stream #1:0 (hevc) -> scale:default\n",
      "  libvmaf:default -> Stream #0:0 (wrapped_avframe)\n",
      "Press [q] to stop, [?] for help\n",
      "Output #0, null, to 'pipe:':\n",
      "  Metadata:\n",
      "    encoder         : Lavf59.22.100\n",
      "  Stream #0:0: Video: wrapped_avframe, yuv420p(tv, progressive), 3840x2160, q=2-31, 200 kb/s, 50 fps, 50 tbn\n",
      "    Metadata:\n",
      "      encoder         : Lavc59.26.100 wrapped_avframe\n",
      "frame= 1500 fps=2.5 q=-0.0 Lsize=N/A time=00:00:30.00 bitrate=N/A speed=0.0492x    \n",
      "video:691kB audio:0kB subtitle:0kB other streams:0kB global headers:0kB muxing overhead: unknown\n",
      "[Parsed_libvmaf_3 @ 0x5609f381aa40] VMAF score: 83.534398\n",
      "ffmpeg version N-106635-g83e1a1de88 Copyright (c) 2000-2022 the FFmpeg developers\n",
      "  built with gcc 9 (Ubuntu 9.4.0-1ubuntu1~20.04.1)\n",
      "  configuration: --prefix=/home/ubuntu/ffmpeg_build --pkg-config-flags=--static --extra-cflags=-I/home/ubuntu/ffmpeg_build/include --extra-ldflags=-L/home/ubuntu/ffmpeg_build/lib --extra-libs='-lpthread -lm' --ld=g++ --bindir=/home/ubuntu/bin --enable-gpl --enable-gnutls --enable-libaom --enable-libass --enable-libfdk-aac --enable-libfreetype --enable-libmp3lame --enable-libopus --enable-libsvtav1 --enable-libdav1d --enable-libvorbis --enable-libvpx --enable-libx264 --enable-libx265 --enable-libvmaf --enable-version3 --enable-nonfree\n",
      "  libavutil      57. 24.101 / 57. 24.101\n",
      "  libavcodec     59. 26.100 / 59. 26.100\n",
      "  libavformat    59. 22.100 / 59. 22.100\n",
      "  libavdevice    59.  6.100 / 59.  6.100\n",
      "  libavfilter     8. 33.100 /  8. 33.100\n",
      "  libswscale      6.  6.100 /  6.  6.100\n",
      "  libswresample   4.  6.100 /  4.  6.100\n",
      "  libpostproc    56.  5.100 / 56.  5.100\n",
      "[rawvideo @ 0x5612441585c0] Estimating duration from bitrate, this may be inaccurate\n",
      "Input #0, rawvideo, from 'test_vids/refs/smithy.yuv':\n",
      "  Duration: 00:00:30.00, start: 0.000000, bitrate: 4976640 kb/s\n",
      "  Stream #0:0: Video: rawvideo (I420 / 0x30323449), yuv420p, 3840x2160, 4976640 kb/s, 50 tbr, 50 tbn\n"
     ]
    },
    {
     "name": "stderr",
     "output_type": "stream",
     "text": [
      "Input #1, matroska,webm, from 'test_vids/encoded/smithyVP9_cf25.webm':\n",
      "  Metadata:\n",
      "    ENCODER         : Lavf59.22.100\n",
      "  Duration: 00:00:30.00, start: 0.000000, bitrate: 62607 kb/s\n",
      "  Stream #1:0: Video: vp9 (Profile 0), yuv420p(tv, progressive), 3840x2160, SAR 1:1 DAR 16:9, 50 fps, 50 tbr, 1k tbn\n",
      "    Metadata:\n",
      "      ENCODER         : Lavc59.26.100 libvpx-vp9\n",
      "      DURATION        : 00:00:30.000000000\n",
      "Stream mapping:\n",
      "  Stream #0:0 (rawvideo) -> setpts:default\n",
      "  Stream #1:0 (vp9) -> scale:default\n",
      "  libvmaf:default -> Stream #0:0 (wrapped_avframe)\n",
      "Press [q] to stop, [?] for help\n",
      "Output #0, null, to 'pipe:':\n",
      "  Metadata:\n",
      "    encoder         : Lavf59.22.100\n",
      "  Stream #0:0: Video: wrapped_avframe, yuv420p(tv, progressive), 3840x2160 [SAR 1:1 DAR 16:9], q=2-31, 200 kb/s, 50 fps, 50 tbn\n",
      "    Metadata:\n",
      "      encoder         : Lavc59.26.100 wrapped_avframe\n",
      "frame= 1500 fps=2.5 q=-0.0 Lsize=N/A time=00:00:30.00 bitrate=N/A speed=0.0496x    \n",
      "video:691kB audio:0kB subtitle:0kB other streams:0kB global headers:0kB muxing overhead: unknown\n",
      "[Parsed_libvmaf_3 @ 0x5612441d56c0] VMAF score: 93.936900\n",
      "ffmpeg version N-106635-g83e1a1de88 Copyright (c) 2000-2022 the FFmpeg developers\n",
      "  built with gcc 9 (Ubuntu 9.4.0-1ubuntu1~20.04.1)\n",
      "  configuration: --prefix=/home/ubuntu/ffmpeg_build --pkg-config-flags=--static --extra-cflags=-I/home/ubuntu/ffmpeg_build/include --extra-ldflags=-L/home/ubuntu/ffmpeg_build/lib --extra-libs='-lpthread -lm' --ld=g++ --bindir=/home/ubuntu/bin --enable-gpl --enable-gnutls --enable-libaom --enable-libass --enable-libfdk-aac --enable-libfreetype --enable-libmp3lame --enable-libopus --enable-libsvtav1 --enable-libdav1d --enable-libvorbis --enable-libvpx --enable-libx264 --enable-libx265 --enable-libvmaf --enable-version3 --enable-nonfree\n",
      "  libavutil      57. 24.101 / 57. 24.101\n",
      "  libavcodec     59. 26.100 / 59. 26.100\n",
      "  libavformat    59. 22.100 / 59. 22.100\n",
      "  libavdevice    59.  6.100 / 59.  6.100\n",
      "  libavfilter     8. 33.100 /  8. 33.100\n",
      "  libswscale      6.  6.100 /  6.  6.100\n",
      "  libswresample   4.  6.100 /  4.  6.100\n",
      "  libpostproc    56.  5.100 / 56.  5.100\n",
      "[rawvideo @ 0x561a4251b5c0] Estimating duration from bitrate, this may be inaccurate\n",
      "Input #0, rawvideo, from 'test_vids/refs/smithy.yuv':\n",
      "  Duration: 00:00:30.00, start: 0.000000, bitrate: 4976640 kb/s\n",
      "  Stream #0:0: Video: rawvideo (I420 / 0x30323449), yuv420p, 3840x2160, 4976640 kb/s, 50 tbr, 50 tbn\n",
      "Input #1, matroska,webm, from 'test_vids/encoded/smithyVP9_cf35.webm':\n",
      "  Metadata:\n",
      "    ENCODER         : Lavf59.22.100\n",
      "  Duration: 00:00:30.00, start: 0.000000, bitrate: 29570 kb/s\n",
      "  Stream #1:0: Video: vp9 (Profile 0), yuv420p(tv, progressive), 3840x2160, SAR 1:1 DAR 16:9, 50 fps, 50 tbr, 1k tbn\n",
      "    Metadata:\n",
      "      ENCODER         : Lavc59.26.100 libvpx-vp9\n",
      "      DURATION        : 00:00:30.000000000\n",
      "Stream mapping:\n",
      "  Stream #0:0 (rawvideo) -> setpts:default\n",
      "  Stream #1:0 (vp9) -> scale:default\n",
      "  libvmaf:default -> Stream #0:0 (wrapped_avframe)\n",
      "Press [q] to stop, [?] for help\n",
      "Output #0, null, to 'pipe:':\n",
      "  Metadata:\n",
      "    encoder         : Lavf59.22.100\n",
      "  Stream #0:0: Video: wrapped_avframe, yuv420p(tv, progressive), 3840x2160 [SAR 1:1 DAR 16:9], q=2-31, 200 kb/s, 50 fps, 50 tbn\n",
      "    Metadata:\n",
      "      encoder         : Lavc59.26.100 wrapped_avframe\n",
      "frame= 1500 fps=2.4 q=-0.0 Lsize=N/A time=00:00:30.00 bitrate=N/A speed=0.0481x    \n",
      "video:691kB audio:0kB subtitle:0kB other streams:0kB global headers:0kB muxing overhead: unknown\n",
      "[Parsed_libvmaf_3 @ 0x561a42598840] VMAF score: 89.427425\n",
      "ffmpeg version N-106635-g83e1a1de88 Copyright (c) 2000-2022 the FFmpeg developers\n",
      "  built with gcc 9 (Ubuntu 9.4.0-1ubuntu1~20.04.1)\n",
      "  configuration: --prefix=/home/ubuntu/ffmpeg_build --pkg-config-flags=--static --extra-cflags=-I/home/ubuntu/ffmpeg_build/include --extra-ldflags=-L/home/ubuntu/ffmpeg_build/lib --extra-libs='-lpthread -lm' --ld=g++ --bindir=/home/ubuntu/bin --enable-gpl --enable-gnutls --enable-libaom --enable-libass --enable-libfdk-aac --enable-libfreetype --enable-libmp3lame --enable-libopus --enable-libsvtav1 --enable-libdav1d --enable-libvorbis --enable-libvpx --enable-libx264 --enable-libx265 --enable-libvmaf --enable-version3 --enable-nonfree\n",
      "  libavutil      57. 24.101 / 57. 24.101\n",
      "  libavcodec     59. 26.100 / 59. 26.100\n",
      "  libavformat    59. 22.100 / 59. 22.100\n",
      "  libavdevice    59.  6.100 / 59.  6.100\n",
      "  libavfilter     8. 33.100 /  8. 33.100\n",
      "  libswscale      6.  6.100 /  6.  6.100\n",
      "  libswresample   4.  6.100 /  4.  6.100\n",
      "  libpostproc    56.  5.100 / 56.  5.100\n",
      "[rawvideo @ 0x5585dc2045c0] Estimating duration from bitrate, this may be inaccurate\n",
      "Input #0, rawvideo, from 'test_vids/refs/smithy.yuv':\n",
      "  Duration: 00:00:30.00, start: 0.000000, bitrate: 4976640 kb/s\n",
      "  Stream #0:0: Video: rawvideo (I420 / 0x30323449), yuv420p, 3840x2160, 4976640 kb/s, 50 tbr, 50 tbn\n",
      "Input #1, matroska,webm, from 'test_vids/encoded/smithyVP9_cf30.webm':\n",
      "  Metadata:\n",
      "    ENCODER         : Lavf59.22.100\n",
      "  Duration: 00:00:30.00, start: 0.000000, bitrate: 44403 kb/s\n",
      "  Stream #1:0: Video: vp9 (Profile 0), yuv420p(tv, progressive), 3840x2160, SAR 1:1 DAR 16:9, 50 fps, 50 tbr, 1k tbn\n",
      "    Metadata:\n",
      "      ENCODER         : Lavc59.26.100 libvpx-vp9\n",
      "      DURATION        : 00:00:30.000000000\n",
      "Stream mapping:\n",
      "  Stream #0:0 (rawvideo) -> setpts:default\n",
      "  Stream #1:0 (vp9) -> scale:default\n",
      "  libvmaf:default -> Stream #0:0 (wrapped_avframe)\n",
      "Press [q] to stop, [?] for help\n",
      "Output #0, null, to 'pipe:':\n",
      "  Metadata:\n",
      "    encoder         : Lavf59.22.100\n",
      "  Stream #0:0: Video: wrapped_avframe, yuv420p(tv, progressive), 3840x2160 [SAR 1:1 DAR 16:9], q=2-31, 200 kb/s, 50 fps, 50 tbn\n",
      "    Metadata:\n",
      "      encoder         : Lavc59.26.100 wrapped_avframe\n",
      "frame= 1500 fps=2.4 q=-0.0 Lsize=N/A time=00:00:30.00 bitrate=N/A speed=0.048x    \n",
      "video:691kB audio:0kB subtitle:0kB other streams:0kB global headers:0kB muxing overhead: unknown\n",
      "[Parsed_libvmaf_3 @ 0x5585dc281700] VMAF score: 92.241372\n",
      "ffmpeg version N-106635-g83e1a1de88 Copyright (c) 2000-2022 the FFmpeg developers\n",
      "  built with gcc 9 (Ubuntu 9.4.0-1ubuntu1~20.04.1)\n",
      "  configuration: --prefix=/home/ubuntu/ffmpeg_build --pkg-config-flags=--static --extra-cflags=-I/home/ubuntu/ffmpeg_build/include --extra-ldflags=-L/home/ubuntu/ffmpeg_build/lib --extra-libs='-lpthread -lm' --ld=g++ --bindir=/home/ubuntu/bin --enable-gpl --enable-gnutls --enable-libaom --enable-libass --enable-libfdk-aac --enable-libfreetype --enable-libmp3lame --enable-libopus --enable-libsvtav1 --enable-libdav1d --enable-libvorbis --enable-libvpx --enable-libx264 --enable-libx265 --enable-libvmaf --enable-version3 --enable-nonfree\n",
      "  libavutil      57. 24.101 / 57. 24.101\n",
      "  libavcodec     59. 26.100 / 59. 26.100\n",
      "  libavformat    59. 22.100 / 59. 22.100\n",
      "  libavdevice    59.  6.100 / 59.  6.100\n",
      "  libavfilter     8. 33.100 /  8. 33.100\n",
      "  libswscale      6.  6.100 /  6.  6.100\n",
      "  libswresample   4.  6.100 /  4.  6.100\n",
      "  libpostproc    56.  5.100 / 56.  5.100\n",
      "[rawvideo @ 0x55fd0f5335c0] Estimating duration from bitrate, this may be inaccurate\n",
      "Input #0, rawvideo, from 'test_vids/refs/smithy.yuv':\n",
      "  Duration: 00:00:30.00, start: 0.000000, bitrate: 4976640 kb/s\n",
      "  Stream #0:0: Video: rawvideo (I420 / 0x30323449), yuv420p, 3840x2160, 4976640 kb/s, 50 tbr, 50 tbn\n",
      "Input #1, mov,mp4,m4a,3gp,3g2,mj2, from 'test_vids/encoded/smithyAVC_cf17.mp4':\n",
      "  Metadata:\n",
      "    major_brand     : isom\n",
      "    minor_version   : 512\n",
      "    compatible_brands: isomiso2avc1mp41\n",
      "    encoder         : Lavf59.22.100\n",
      "  Duration: 00:00:30.00, start: 0.000000, bitrate: 58520 kb/s\n",
      "  Stream #1:0[0x1](und): Video: h264 (High) (avc1 / 0x31637661), yuv420p(progressive), 3840x2160, 58514 kb/s, 50 fps, 50 tbr, 12800 tbn (default)\n",
      "    Metadata:\n",
      "      handler_name    : VideoHandler\n",
      "      vendor_id       : [0][0][0][0]\n",
      "Stream mapping:\n",
      "  Stream #0:0 (rawvideo) -> setpts:default\n",
      "  Stream #1:0 (h264) -> scale:default\n",
      "  libvmaf:default -> Stream #0:0 (wrapped_avframe)\n",
      "Press [q] to stop, [?] for help\n",
      "Output #0, null, to 'pipe:':\n",
      "  Metadata:\n",
      "    encoder         : Lavf59.22.100\n",
      "  Stream #0:0: Video: wrapped_avframe, yuv420p(progressive), 3840x2160, q=2-31, 200 kb/s, 50 fps, 50 tbn\n",
      "    Metadata:\n",
      "      encoder         : Lavc59.26.100 wrapped_avframe\n"
     ]
    },
    {
     "name": "stderr",
     "output_type": "stream",
     "text": [
      "frame= 1500 fps=2.5 q=-0.0 Lsize=N/A time=00:00:30.00 bitrate=N/A speed=0.049x    \n",
      "video:691kB audio:0kB subtitle:0kB other streams:0kB global headers:0kB muxing overhead: unknown\n",
      "[Parsed_libvmaf_3 @ 0x55fd116c5840] VMAF score: 94.040953\n",
      "ffmpeg version N-106635-g83e1a1de88 Copyright (c) 2000-2022 the FFmpeg developers\n",
      "  built with gcc 9 (Ubuntu 9.4.0-1ubuntu1~20.04.1)\n",
      "  configuration: --prefix=/home/ubuntu/ffmpeg_build --pkg-config-flags=--static --extra-cflags=-I/home/ubuntu/ffmpeg_build/include --extra-ldflags=-L/home/ubuntu/ffmpeg_build/lib --extra-libs='-lpthread -lm' --ld=g++ --bindir=/home/ubuntu/bin --enable-gpl --enable-gnutls --enable-libaom --enable-libass --enable-libfdk-aac --enable-libfreetype --enable-libmp3lame --enable-libopus --enable-libsvtav1 --enable-libdav1d --enable-libvorbis --enable-libvpx --enable-libx264 --enable-libx265 --enable-libvmaf --enable-version3 --enable-nonfree\n",
      "  libavutil      57. 24.101 / 57. 24.101\n",
      "  libavcodec     59. 26.100 / 59. 26.100\n",
      "  libavformat    59. 22.100 / 59. 22.100\n",
      "  libavdevice    59.  6.100 / 59.  6.100\n",
      "  libavfilter     8. 33.100 /  8. 33.100\n",
      "  libswscale      6.  6.100 /  6.  6.100\n",
      "  libswresample   4.  6.100 /  4.  6.100\n",
      "  libpostproc    56.  5.100 / 56.  5.100\n",
      "[rawvideo @ 0x55a35c0775c0] Estimating duration from bitrate, this may be inaccurate\n",
      "Input #0, rawvideo, from 'test_vids/refs/smithy.yuv':\n",
      "  Duration: 00:00:30.00, start: 0.000000, bitrate: 4976640 kb/s\n",
      "  Stream #0:0: Video: rawvideo (I420 / 0x30323449), yuv420p, 3840x2160, 4976640 kb/s, 50 tbr, 50 tbn\n",
      "Input #1, mov,mp4,m4a,3gp,3g2,mj2, from 'test_vids/encoded/smithyHEVC_cf15.mp4':\n",
      "  Metadata:\n",
      "    major_brand     : isom\n",
      "    minor_version   : 512\n",
      "    compatible_brands: isomiso2mp41\n",
      "    encoder         : Lavf59.22.100\n",
      "  Duration: 00:00:30.00, start: 0.000000, bitrate: 83264 kb/s\n",
      "  Stream #1:0[0x1](und): Video: hevc (Main) (hev1 / 0x31766568), yuv420p(tv, progressive), 3840x2160, 83258 kb/s, 50 fps, 50 tbr, 12800 tbn (default)\n",
      "    Metadata:\n",
      "      handler_name    : VideoHandler\n",
      "      vendor_id       : [0][0][0][0]\n",
      "Stream mapping:\n",
      "  Stream #0:0 (rawvideo) -> setpts:default\n",
      "  Stream #1:0 (hevc) -> scale:default\n",
      "  libvmaf:default -> Stream #0:0 (wrapped_avframe)\n",
      "Press [q] to stop, [?] for help\n",
      "Output #0, null, to 'pipe:':\n",
      "  Metadata:\n",
      "    encoder         : Lavf59.22.100\n",
      "  Stream #0:0: Video: wrapped_avframe, yuv420p(tv, progressive), 3840x2160, q=2-31, 200 kb/s, 50 fps, 50 tbn\n",
      "    Metadata:\n",
      "      encoder         : Lavc59.26.100 wrapped_avframe\n",
      "frame= 1500 fps=2.4 q=-0.0 Lsize=N/A time=00:00:30.00 bitrate=N/A speed=0.0483x    \n",
      "video:691kB audio:0kB subtitle:0kB other streams:0kB global headers:0kB muxing overhead: unknown\n",
      "[Parsed_libvmaf_3 @ 0x55a35ed77a00] VMAF score: 95.119856\n",
      "ffmpeg version N-106635-g83e1a1de88 Copyright (c) 2000-2022 the FFmpeg developers\n",
      "  built with gcc 9 (Ubuntu 9.4.0-1ubuntu1~20.04.1)\n",
      "  configuration: --prefix=/home/ubuntu/ffmpeg_build --pkg-config-flags=--static --extra-cflags=-I/home/ubuntu/ffmpeg_build/include --extra-ldflags=-L/home/ubuntu/ffmpeg_build/lib --extra-libs='-lpthread -lm' --ld=g++ --bindir=/home/ubuntu/bin --enable-gpl --enable-gnutls --enable-libaom --enable-libass --enable-libfdk-aac --enable-libfreetype --enable-libmp3lame --enable-libopus --enable-libsvtav1 --enable-libdav1d --enable-libvorbis --enable-libvpx --enable-libx264 --enable-libx265 --enable-libvmaf --enable-version3 --enable-nonfree\n",
      "  libavutil      57. 24.101 / 57. 24.101\n",
      "  libavcodec     59. 26.100 / 59. 26.100\n",
      "  libavformat    59. 22.100 / 59. 22.100\n",
      "  libavdevice    59.  6.100 / 59.  6.100\n",
      "  libavfilter     8. 33.100 /  8. 33.100\n",
      "  libswscale      6.  6.100 /  6.  6.100\n",
      "  libswresample   4.  6.100 /  4.  6.100\n",
      "  libpostproc    56.  5.100 / 56.  5.100\n",
      "[rawvideo @ 0x55c9bb93c5c0] Estimating duration from bitrate, this may be inaccurate\n",
      "Input #0, rawvideo, from 'test_vids/refs/smithy.yuv':\n",
      "  Duration: 00:00:30.00, start: 0.000000, bitrate: 4976640 kb/s\n",
      "  Stream #0:0: Video: rawvideo (I420 / 0x30323449), yuv420p, 3840x2160, 4976640 kb/s, 50 tbr, 50 tbn\n",
      "Input #1, mov,mp4,m4a,3gp,3g2,mj2, from 'test_vids/encoded/smithyAVC_cf35.mp4':\n",
      "  Metadata:\n",
      "    major_brand     : isom\n",
      "    minor_version   : 512\n",
      "    compatible_brands: isomiso2avc1mp41\n",
      "    encoder         : Lavf59.22.100\n",
      "  Duration: 00:00:30.00, start: 0.000000, bitrate: 4357 kb/s\n",
      "  Stream #1:0[0x1](und): Video: h264 (High) (avc1 / 0x31637661), yuv420p(progressive), 3840x2160, 4352 kb/s, 50 fps, 50 tbr, 12800 tbn (default)\n",
      "    Metadata:\n",
      "      handler_name    : VideoHandler\n",
      "      vendor_id       : [0][0][0][0]\n",
      "Stream mapping:\n",
      "  Stream #0:0 (rawvideo) -> setpts:default\n",
      "  Stream #1:0 (h264) -> scale:default\n",
      "  libvmaf:default -> Stream #0:0 (wrapped_avframe)\n",
      "Press [q] to stop, [?] for help\n",
      "Output #0, null, to 'pipe:':\n",
      "  Metadata:\n",
      "    encoder         : Lavf59.22.100\n",
      "  Stream #0:0: Video: wrapped_avframe, yuv420p(progressive), 3840x2160, q=2-31, 200 kb/s, 50 fps, 50 tbn\n",
      "    Metadata:\n",
      "      encoder         : Lavc59.26.100 wrapped_avframe\n",
      "frame= 1500 fps=2.4 q=-0.0 Lsize=N/A time=00:00:30.00 bitrate=N/A speed=0.0484x    \n",
      "video:691kB audio:0kB subtitle:0kB other streams:0kB global headers:0kB muxing overhead: unknown\n",
      "[Parsed_libvmaf_3 @ 0x55c9bdace240] VMAF score: 61.998692\n",
      "ffmpeg version N-106635-g83e1a1de88 Copyright (c) 2000-2022 the FFmpeg developers\n",
      "  built with gcc 9 (Ubuntu 9.4.0-1ubuntu1~20.04.1)\n",
      "  configuration: --prefix=/home/ubuntu/ffmpeg_build --pkg-config-flags=--static --extra-cflags=-I/home/ubuntu/ffmpeg_build/include --extra-ldflags=-L/home/ubuntu/ffmpeg_build/lib --extra-libs='-lpthread -lm' --ld=g++ --bindir=/home/ubuntu/bin --enable-gpl --enable-gnutls --enable-libaom --enable-libass --enable-libfdk-aac --enable-libfreetype --enable-libmp3lame --enable-libopus --enable-libsvtav1 --enable-libdav1d --enable-libvorbis --enable-libvpx --enable-libx264 --enable-libx265 --enable-libvmaf --enable-version3 --enable-nonfree\n",
      "  libavutil      57. 24.101 / 57. 24.101\n",
      "  libavcodec     59. 26.100 / 59. 26.100\n",
      "  libavformat    59. 22.100 / 59. 22.100\n",
      "  libavdevice    59.  6.100 / 59.  6.100\n",
      "  libavfilter     8. 33.100 /  8. 33.100\n",
      "  libswscale      6.  6.100 /  6.  6.100\n",
      "  libswresample   4.  6.100 /  4.  6.100\n",
      "  libpostproc    56.  5.100 / 56.  5.100\n",
      "[rawvideo @ 0x5643b59e15c0] Estimating duration from bitrate, this may be inaccurate\n",
      "Input #0, rawvideo, from 'test_vids/refs/smithy.yuv':\n",
      "  Duration: 00:00:30.00, start: 0.000000, bitrate: 4976640 kb/s\n",
      "  Stream #0:0: Video: rawvideo (I420 / 0x30323449), yuv420p, 3840x2160, 4976640 kb/s, 50 tbr, 50 tbn\n",
      "Input #1, mov,mp4,m4a,3gp,3g2,mj2, from 'test_vids/encoded/smithyHEVC_cf40.mp4':\n",
      "  Metadata:\n",
      "    major_brand     : isom\n",
      "    minor_version   : 512\n",
      "    compatible_brands: isomiso2mp41\n",
      "    encoder         : Lavf59.22.100\n",
      "  Duration: 00:00:30.00, start: 0.000000, bitrate: 1784 kb/s\n",
      "  Stream #1:0[0x1](und): Video: hevc (Main) (hev1 / 0x31766568), yuv420p(tv, progressive), 3840x2160, 1778 kb/s, 50 fps, 50 tbr, 12800 tbn (default)\n",
      "    Metadata:\n",
      "      handler_name    : VideoHandler\n",
      "      vendor_id       : [0][0][0][0]\n",
      "Stream mapping:\n",
      "  Stream #0:0 (rawvideo) -> setpts:default\n",
      "  Stream #1:0 (hevc) -> scale:default\n",
      "  libvmaf:default -> Stream #0:0 (wrapped_avframe)\n",
      "Press [q] to stop, [?] for help\n",
      "Output #0, null, to 'pipe:':\n",
      "  Metadata:\n",
      "    encoder         : Lavf59.22.100\n",
      "  Stream #0:0: Video: wrapped_avframe, yuv420p(tv, progressive), 3840x2160, q=2-31, 200 kb/s, 50 fps, 50 tbn\n",
      "    Metadata:\n",
      "      encoder         : Lavc59.26.100 wrapped_avframe\n",
      "frame= 1500 fps=2.4 q=-0.0 Lsize=N/A time=00:00:30.00 bitrate=N/A speed=0.0489x    \n",
      "video:691kB audio:0kB subtitle:0kB other streams:0kB global headers:0kB muxing overhead: unknown\n",
      "[Parsed_libvmaf_3 @ 0x5643b86e0b00] VMAF score: 45.709408\n",
      "ffmpeg version N-106635-g83e1a1de88 Copyright (c) 2000-2022 the FFmpeg developers\n",
      "  built with gcc 9 (Ubuntu 9.4.0-1ubuntu1~20.04.1)\n",
      "  configuration: --prefix=/home/ubuntu/ffmpeg_build --pkg-config-flags=--static --extra-cflags=-I/home/ubuntu/ffmpeg_build/include --extra-ldflags=-L/home/ubuntu/ffmpeg_build/lib --extra-libs='-lpthread -lm' --ld=g++ --bindir=/home/ubuntu/bin --enable-gpl --enable-gnutls --enable-libaom --enable-libass --enable-libfdk-aac --enable-libfreetype --enable-libmp3lame --enable-libopus --enable-libsvtav1 --enable-libdav1d --enable-libvorbis --enable-libvpx --enable-libx264 --enable-libx265 --enable-libvmaf --enable-version3 --enable-nonfree\n",
      "  libavutil      57. 24.101 / 57. 24.101\n",
      "  libavcodec     59. 26.100 / 59. 26.100\n",
      "  libavformat    59. 22.100 / 59. 22.100\n",
      "  libavdevice    59.  6.100 / 59.  6.100\n",
      "  libavfilter     8. 33.100 /  8. 33.100\n",
      "  libswscale      6.  6.100 /  6.  6.100\n",
      "  libswresample   4.  6.100 /  4.  6.100\n",
      "  libpostproc    56.  5.100 / 56.  5.100\n",
      "[rawvideo @ 0x5643232745c0] Estimating duration from bitrate, this may be inaccurate\n",
      "Input #0, rawvideo, from 'test_vids/refs/smithy.yuv':\n",
      "  Duration: 00:00:30.00, start: 0.000000, bitrate: 4976640 kb/s\n",
      "  Stream #0:0: Video: rawvideo (I420 / 0x30323449), yuv420p, 3840x2160, 4976640 kb/s, 50 tbr, 50 tbn\n"
     ]
    },
    {
     "name": "stderr",
     "output_type": "stream",
     "text": [
      "Input #1, mov,mp4,m4a,3gp,3g2,mj2, from 'test_vids/encoded/smithyAVC_cf29.mp4':\n",
      "  Metadata:\n",
      "    major_brand     : isom\n",
      "    minor_version   : 512\n",
      "    compatible_brands: isomiso2avc1mp41\n",
      "    encoder         : Lavf59.22.100\n",
      "  Duration: 00:00:30.00, start: 0.000000, bitrate: 10681 kb/s\n",
      "  Stream #1:0[0x1](und): Video: h264 (High) (avc1 / 0x31637661), yuv420p(progressive), 3840x2160, 10675 kb/s, 50 fps, 50 tbr, 12800 tbn (default)\n",
      "    Metadata:\n",
      "      handler_name    : VideoHandler\n",
      "      vendor_id       : [0][0][0][0]\n",
      "Stream mapping:\n",
      "  Stream #0:0 (rawvideo) -> setpts:default\n",
      "  Stream #1:0 (h264) -> scale:default\n",
      "  libvmaf:default -> Stream #0:0 (wrapped_avframe)\n",
      "Press [q] to stop, [?] for help\n",
      "Output #0, null, to 'pipe:':\n",
      "  Metadata:\n",
      "    encoder         : Lavf59.22.100\n",
      "  Stream #0:0: Video: wrapped_avframe, yuv420p(progressive), 3840x2160, q=2-31, 200 kb/s, 50 fps, 50 tbn\n",
      "    Metadata:\n",
      "      encoder         : Lavc59.26.100 wrapped_avframe\n",
      "frame= 1500 fps=2.4 q=-0.0 Lsize=N/A time=00:00:30.00 bitrate=N/A speed=0.0476x    \n",
      "video:691kB audio:0kB subtitle:0kB other streams:0kB global headers:0kB muxing overhead: unknown\n",
      "[Parsed_libvmaf_3 @ 0x564325406c00] VMAF score: 80.080276\n",
      "ffmpeg version N-106635-g83e1a1de88 Copyright (c) 2000-2022 the FFmpeg developers\n",
      "  built with gcc 9 (Ubuntu 9.4.0-1ubuntu1~20.04.1)\n",
      "  configuration: --prefix=/home/ubuntu/ffmpeg_build --pkg-config-flags=--static --extra-cflags=-I/home/ubuntu/ffmpeg_build/include --extra-ldflags=-L/home/ubuntu/ffmpeg_build/lib --extra-libs='-lpthread -lm' --ld=g++ --bindir=/home/ubuntu/bin --enable-gpl --enable-gnutls --enable-libaom --enable-libass --enable-libfdk-aac --enable-libfreetype --enable-libmp3lame --enable-libopus --enable-libsvtav1 --enable-libdav1d --enable-libvorbis --enable-libvpx --enable-libx264 --enable-libx265 --enable-libvmaf --enable-version3 --enable-nonfree\n",
      "  libavutil      57. 24.101 / 57. 24.101\n",
      "  libavcodec     59. 26.100 / 59. 26.100\n",
      "  libavformat    59. 22.100 / 59. 22.100\n",
      "  libavdevice    59.  6.100 / 59.  6.100\n",
      "  libavfilter     8. 33.100 /  8. 33.100\n",
      "  libswscale      6.  6.100 /  6.  6.100\n",
      "  libswresample   4.  6.100 /  4.  6.100\n",
      "  libpostproc    56.  5.100 / 56.  5.100\n",
      "[rawvideo @ 0x55d75c67c5c0] Estimating duration from bitrate, this may be inaccurate\n",
      "Input #0, rawvideo, from 'test_vids/refs/smithy.yuv':\n",
      "  Duration: 00:00:30.00, start: 0.000000, bitrate: 4976640 kb/s\n",
      "  Stream #0:0: Video: rawvideo (I420 / 0x30323449), yuv420p, 3840x2160, 4976640 kb/s, 50 tbr, 50 tbn\n",
      "Input #1, mov,mp4,m4a,3gp,3g2,mj2, from 'test_vids/encoded/smithyAVC_cf23.mp4':\n",
      "  Metadata:\n",
      "    major_brand     : isom\n",
      "    minor_version   : 512\n",
      "    compatible_brands: isomiso2avc1mp41\n",
      "    encoder         : Lavf59.22.100\n",
      "  Duration: 00:00:30.00, start: 0.000000, bitrate: 25011 kb/s\n",
      "  Stream #1:0[0x1](und): Video: h264 (High) (avc1 / 0x31637661), yuv420p(progressive), 3840x2160, 25005 kb/s, 50 fps, 50 tbr, 12800 tbn (default)\n",
      "    Metadata:\n",
      "      handler_name    : VideoHandler\n",
      "      vendor_id       : [0][0][0][0]\n",
      "Stream mapping:\n",
      "  Stream #0:0 (rawvideo) -> setpts:default\n",
      "  Stream #1:0 (h264) -> scale:default\n",
      "  libvmaf:default -> Stream #0:0 (wrapped_avframe)\n",
      "Press [q] to stop, [?] for help\n",
      "Output #0, null, to 'pipe:':\n",
      "  Metadata:\n",
      "    encoder         : Lavf59.22.100\n",
      "  Stream #0:0: Video: wrapped_avframe, yuv420p(progressive), 3840x2160, q=2-31, 200 kb/s, 50 fps, 50 tbn\n",
      "    Metadata:\n",
      "      encoder         : Lavc59.26.100 wrapped_avframe\n",
      "frame= 1500 fps=2.4 q=-0.0 Lsize=N/A time=00:00:30.00 bitrate=N/A speed=0.0484x    \n",
      "video:691kB audio:0kB subtitle:0kB other streams:0kB global headers:0kB muxing overhead: unknown\n",
      "[Parsed_libvmaf_3 @ 0x55d75e80eec0] VMAF score: 89.539312\n",
      "ffmpeg version N-106635-g83e1a1de88 Copyright (c) 2000-2022 the FFmpeg developers\n",
      "  built with gcc 9 (Ubuntu 9.4.0-1ubuntu1~20.04.1)\n",
      "  configuration: --prefix=/home/ubuntu/ffmpeg_build --pkg-config-flags=--static --extra-cflags=-I/home/ubuntu/ffmpeg_build/include --extra-ldflags=-L/home/ubuntu/ffmpeg_build/lib --extra-libs='-lpthread -lm' --ld=g++ --bindir=/home/ubuntu/bin --enable-gpl --enable-gnutls --enable-libaom --enable-libass --enable-libfdk-aac --enable-libfreetype --enable-libmp3lame --enable-libopus --enable-libsvtav1 --enable-libdav1d --enable-libvorbis --enable-libvpx --enable-libx264 --enable-libx265 --enable-libvmaf --enable-version3 --enable-nonfree\n",
      "  libavutil      57. 24.101 / 57. 24.101\n",
      "  libavcodec     59. 26.100 / 59. 26.100\n",
      "  libavformat    59. 22.100 / 59. 22.100\n",
      "  libavdevice    59.  6.100 / 59.  6.100\n",
      "  libavfilter     8. 33.100 /  8. 33.100\n",
      "  libswscale      6.  6.100 /  6.  6.100\n",
      "  libswresample   4.  6.100 /  4.  6.100\n",
      "  libpostproc    56.  5.100 / 56.  5.100\n",
      "[rawvideo @ 0x55eacc52a5c0] Estimating duration from bitrate, this may be inaccurate\n",
      "Input #0, rawvideo, from 'test_vids/refs/smithy.yuv':\n",
      "  Duration: 00:00:30.00, start: 0.000000, bitrate: 4976640 kb/s\n",
      "  Stream #0:0: Video: rawvideo (I420 / 0x30323449), yuv420p, 3840x2160, 4976640 kb/s, 50 tbr, 50 tbn\n",
      "Input #1, matroska,webm, from 'test_vids/encoded/smithyVP9_cf15.webm':\n",
      "  Metadata:\n",
      "    ENCODER         : Lavf59.22.100\n",
      "  Duration: 00:00:30.00, start: 0.000000, bitrate: 109570 kb/s\n",
      "  Stream #1:0: Video: vp9 (Profile 0), yuv420p(tv, progressive), 3840x2160, SAR 1:1 DAR 16:9, 50 fps, 50 tbr, 1k tbn\n",
      "    Metadata:\n",
      "      ENCODER         : Lavc59.26.100 libvpx-vp9\n",
      "      DURATION        : 00:00:30.000000000\n",
      "Stream mapping:\n",
      "  Stream #0:0 (rawvideo) -> setpts:default\n",
      "  Stream #1:0 (vp9) -> scale:default\n",
      "  libvmaf:default -> Stream #0:0 (wrapped_avframe)\n",
      "Press [q] to stop, [?] for help\n",
      "Output #0, null, to 'pipe:':\n",
      "  Metadata:\n",
      "    encoder         : Lavf59.22.100\n",
      "  Stream #0:0: Video: wrapped_avframe, yuv420p(tv, progressive), 3840x2160 [SAR 1:1 DAR 16:9], q=2-31, 200 kb/s, 50 fps, 50 tbn\n",
      "    Metadata:\n",
      "      encoder         : Lavc59.26.100 wrapped_avframe\n",
      "frame= 1500 fps=2.4 q=-0.0 Lsize=N/A time=00:00:30.00 bitrate=N/A speed=0.0483x    \n",
      "video:691kB audio:0kB subtitle:0kB other streams:0kB global headers:0kB muxing overhead: unknown\n",
      "[Parsed_libvmaf_3 @ 0x55eacc5a76c0] VMAF score: 95.836650\n",
      "ffmpeg version N-106635-g83e1a1de88 Copyright (c) 2000-2022 the FFmpeg developers\n",
      "  built with gcc 9 (Ubuntu 9.4.0-1ubuntu1~20.04.1)\n",
      "  configuration: --prefix=/home/ubuntu/ffmpeg_build --pkg-config-flags=--static --extra-cflags=-I/home/ubuntu/ffmpeg_build/include --extra-ldflags=-L/home/ubuntu/ffmpeg_build/lib --extra-libs='-lpthread -lm' --ld=g++ --bindir=/home/ubuntu/bin --enable-gpl --enable-gnutls --enable-libaom --enable-libass --enable-libfdk-aac --enable-libfreetype --enable-libmp3lame --enable-libopus --enable-libsvtav1 --enable-libdav1d --enable-libvorbis --enable-libvpx --enable-libx264 --enable-libx265 --enable-libvmaf --enable-version3 --enable-nonfree\n",
      "  libavutil      57. 24.101 / 57. 24.101\n",
      "  libavcodec     59. 26.100 / 59. 26.100\n",
      "  libavformat    59. 22.100 / 59. 22.100\n",
      "  libavdevice    59.  6.100 / 59.  6.100\n",
      "  libavfilter     8. 33.100 /  8. 33.100\n",
      "  libswscale      6.  6.100 /  6.  6.100\n",
      "  libswresample   4.  6.100 /  4.  6.100\n",
      "  libpostproc    56.  5.100 / 56.  5.100\n",
      "[rawvideo @ 0x55b8f98585c0] Estimating duration from bitrate, this may be inaccurate\n",
      "Input #0, rawvideo, from 'test_vids/refs/smithy.yuv':\n",
      "  Duration: 00:00:30.00, start: 0.000000, bitrate: 4976640 kb/s\n",
      "  Stream #0:0: Video: rawvideo (I420 / 0x30323449), yuv420p, 3840x2160, 4976640 kb/s, 50 tbr, 50 tbn\n",
      "Input #1, mov,mp4,m4a,3gp,3g2,mj2, from 'test_vids/encoded/smithyHEVC_cf34.mp4':\n",
      "  Metadata:\n",
      "    major_brand     : isom\n",
      "    minor_version   : 512\n",
      "    compatible_brands: isomiso2mp41\n",
      "    encoder         : Lavf59.22.100\n",
      "  Duration: 00:00:30.00, start: 0.000000, bitrate: 5597 kb/s\n",
      "  Stream #1:0[0x1](und): Video: hevc (Main) (hev1 / 0x31766568), yuv420p(tv, progressive), 3840x2160, 5591 kb/s, 50 fps, 50 tbr, 12800 tbn (default)\n",
      "    Metadata:\n",
      "      handler_name    : VideoHandler\n",
      "      vendor_id       : [0][0][0][0]\n",
      "Stream mapping:\n",
      "  Stream #0:0 (rawvideo) -> setpts:default\n",
      "  Stream #1:0 (hevc) -> scale:default\n",
      "  libvmaf:default -> Stream #0:0 (wrapped_avframe)\n",
      "Press [q] to stop, [?] for help\n",
      "Output #0, null, to 'pipe:':\n",
      "  Metadata:\n",
      "    encoder         : Lavf59.22.100\n",
      "  Stream #0:0: Video: wrapped_avframe, yuv420p(tv, progressive), 3840x2160, q=2-31, 200 kb/s, 50 fps, 50 tbn\n",
      "    Metadata:\n",
      "      encoder         : Lavc59.26.100 wrapped_avframe\n"
     ]
    },
    {
     "name": "stderr",
     "output_type": "stream",
     "text": [
      "frame= 1500 fps=2.4 q=-0.0 Lsize=N/A time=00:00:30.00 bitrate=N/A speed=0.0479x    \n",
      "video:691kB audio:0kB subtitle:0kB other streams:0kB global headers:0kB muxing overhead: unknown\n",
      "[Parsed_libvmaf_3 @ 0x55b8fc558380] VMAF score: 69.210700\n",
      "ffmpeg version N-106635-g83e1a1de88 Copyright (c) 2000-2022 the FFmpeg developers\n",
      "  built with gcc 9 (Ubuntu 9.4.0-1ubuntu1~20.04.1)\n",
      "  configuration: --prefix=/home/ubuntu/ffmpeg_build --pkg-config-flags=--static --extra-cflags=-I/home/ubuntu/ffmpeg_build/include --extra-ldflags=-L/home/ubuntu/ffmpeg_build/lib --extra-libs='-lpthread -lm' --ld=g++ --bindir=/home/ubuntu/bin --enable-gpl --enable-gnutls --enable-libaom --enable-libass --enable-libfdk-aac --enable-libfreetype --enable-libmp3lame --enable-libopus --enable-libsvtav1 --enable-libdav1d --enable-libvorbis --enable-libvpx --enable-libx264 --enable-libx265 --enable-libvmaf --enable-version3 --enable-nonfree\n",
      "  libavutil      57. 24.101 / 57. 24.101\n",
      "  libavcodec     59. 26.100 / 59. 26.100\n",
      "  libavformat    59. 22.100 / 59. 22.100\n",
      "  libavdevice    59.  6.100 / 59.  6.100\n",
      "  libavfilter     8. 33.100 /  8. 33.100\n",
      "  libswscale      6.  6.100 /  6.  6.100\n",
      "  libswresample   4.  6.100 /  4.  6.100\n",
      "  libpostproc    56.  5.100 / 56.  5.100\n",
      "[rawvideo @ 0x557c890325c0] Estimating duration from bitrate, this may be inaccurate\n",
      "Input #0, rawvideo, from 'test_vids/refs/smithy.yuv':\n",
      "  Duration: 00:00:30.00, start: 0.000000, bitrate: 4976640 kb/s\n",
      "  Stream #0:0: Video: rawvideo (I420 / 0x30323449), yuv420p, 3840x2160, 4976640 kb/s, 50 tbr, 50 tbn\n",
      "Input #1, matroska,webm, from 'test_vids/encoded/smithyVP9_cf20.webm':\n",
      "  Metadata:\n",
      "    ENCODER         : Lavf59.22.100\n",
      "  Duration: 00:00:30.00, start: 0.000000, bitrate: 82311 kb/s\n",
      "  Stream #1:0: Video: vp9 (Profile 0), yuv420p(tv, progressive), 3840x2160, SAR 1:1 DAR 16:9, 50 fps, 50 tbr, 1k tbn\n",
      "    Metadata:\n",
      "      ENCODER         : Lavc59.26.100 libvpx-vp9\n",
      "      DURATION        : 00:00:30.000000000\n",
      "Stream mapping:\n",
      "  Stream #0:0 (rawvideo) -> setpts:default\n",
      "  Stream #1:0 (vp9) -> scale:default\n",
      "  libvmaf:default -> Stream #0:0 (wrapped_avframe)\n",
      "Press [q] to stop, [?] for help\n",
      "Output #0, null, to 'pipe:':\n",
      "  Metadata:\n",
      "    encoder         : Lavf59.22.100\n",
      "  Stream #0:0: Video: wrapped_avframe, yuv420p(tv, progressive), 3840x2160 [SAR 1:1 DAR 16:9], q=2-31, 200 kb/s, 50 fps, 50 tbn\n",
      "    Metadata:\n",
      "      encoder         : Lavc59.26.100 wrapped_avframe\n",
      "frame= 1500 fps=2.4 q=-0.0 Lsize=N/A time=00:00:30.00 bitrate=N/A speed=0.0487x    \n",
      "video:691kB audio:0kB subtitle:0kB other streams:0kB global headers:0kB muxing overhead: unknown\n",
      "[Parsed_libvmaf_3 @ 0x557c890af780] VMAF score: 95.005127\n"
     ]
    }
   ],
   "source": [
    "import os\n",
    "import json\n",
    "import subprocess\n",
    "\n",
    "folder = \"test_vids/encoded\"\n",
    "source = \"smithy\"\n",
    "filepath = \"rd_results/rd_\" + source + \".json\"\n",
    "path_ref = \"test_vids/refs/\" + source + \".yuv\"\n",
    "\n",
    "for file in os.listdir(folder):\n",
    "    path_dist = os.path.join(folder, file)\n",
    "    c_vmaf = f\"ffmpeg -f rawvideo -r 50 -video_size 3840x2160 -i {path_ref} \\\n",
    "            -i {path_dist} \\\n",
    "            -lavfi \\\"[0:v]setpts=PTS-STARTPTS[ref];\\\n",
    "                     [1:v]scale=3840x2160:flags=bicubic, setpts=PTS-STARTPTS[dist];\\\n",
    "                     [dist][ref]libvmaf=feature=name=psnr:log_path=rd_results/vmaf_logs.json:log_fmt=json\\\" \\\n",
    "            -f null -\"\n",
    "    #|name=float_ssim|name=float_ms_ssim\n",
    "    subprocess.call(c_vmaf, shell=True)\n",
    "    \n",
    "    with open(\"rd_results/vmaf_logs.json\", 'r') as r:\n",
    "        i_data = json.load(r)\n",
    "\n",
    "    vmaf = i_data[\"pooled_metrics\"][\"vmaf\"][\"mean\"]\n",
    "    #ssim = i_data[\"pooled_metrics\"][\"float_ssim\"][\"mean\"]\n",
    "    #ms_ssim = i_data[\"pooled_metrics\"][\"float_ms_ssim\"][\"mean\"]\n",
    "    psnr = (6*i_data[\"pooled_metrics\"][\"psnr_y\"][\"mean\"] + i_data[\"pooled_metrics\"][\"psnr_cb\"][\"mean\"] + i_data[\"pooled_metrics\"][\"psnr_cr\"][\"mean\"])/8\n",
    "    command = \"ffprobe -v error -select_streams v:0 -show_entries format:stream -print_format json \" + path_dist\n",
    "    cout = subprocess.run(command.split(), stdout=subprocess.PIPE, stderr=subprocess.STDOUT).stdout\n",
    "    \n",
    "    dict = json.loads(cout)\n",
    "    file_name = str(dict['format']['filename']).split(\"/\")[-1]\n",
    "    codec = str(dict['streams'][0]['codec_name'])\n",
    "    width = int(dict['streams'][0]['width'])\n",
    "    height = int(dict['streams'][0]['height']) \n",
    "    fps = int(str(dict['streams'][0]['r_frame_rate']).split(\"/\")[0])\n",
    "    cfr = int(file_name.split(\"_cf\")[1].split('.')[0])\n",
    "    bitrate = int(dict['format']['bit_rate']) \n",
    "\n",
    "    with open(filepath, 'r') as f:\n",
    "        o_data = json.load(f)\n",
    "    o_data.append({\n",
    "        \"video_content\": source,\n",
    "        \"file_name\": file_name,\n",
    "        \"codec\": codec,\n",
    "        \"width\": width,\n",
    "        \"height\": height,\n",
    "        \"framerate\": fps,\n",
    "        \"cfr\": cfr,\n",
    "        \"bitrate\": bitrate,\n",
    "        \"vmaf\": vmaf,\n",
    "        \"psnr\": psnr\n",
    "    })\n",
    "    with open(filepath, 'w') as w:\n",
    "        json.dump(o_data, w, indent=4, separators=(',',': '))"
   ]
  },
  {
   "cell_type": "code",
   "execution_count": null,
   "id": "14e4d380",
   "metadata": {},
   "outputs": [],
   "source": [
    "import os\n",
    "import json\n",
    "import subprocess\n",
    "\n",
    "folder = \"test_vids/encoded\"\n",
    "source = \"smithy\"\n",
    "filepath = \"rd_results/rd_\" + source + \".json\"\n",
    "path_ref = \"test_vids/refs/\" + source + \"_3840.yuv\"\n",
    "\n",
    "path_dist = \"test_vids/encoded/smithyAVC_1920_cf1.mp4\"\n",
    "c_vmaf = f\"ffmpeg -f rawvideo -r 50 -video_size 3840x2160 -i {path_ref} \\\n",
    "        -i {path_dist} \\\n",
    "        -lavfi \\\"[0:v]setpts=PTS-STARTPTS[ref];\\\n",
    "                [1:v]scale=3840x2160:flags=bicubic, setpts=PTS-STARTPTS[dist];\\\n",
    "                [dist][ref]libvmaf=feature=name=psnr:log_path=rd_results/vmaf_logs.json:log_fmt=json\\\" \\\n",
    "        -f null -\"\n",
    "#|name=float_ssim|name=float_ms_ssim\n",
    "subprocess.call(c_vmaf, shell=True)\n",
    "\n",
    "with open(\"rd_results/vmaf_logs.json\", 'r') as r:\n",
    "    i_data = json.load(r)\n",
    "\n",
    "vmaf = i_data[\"pooled_metrics\"][\"vmaf\"][\"mean\"]\n",
    "psnr = (6*i_data[\"pooled_metrics\"][\"psnr_y\"][\"mean\"] + i_data[\"pooled_metrics\"][\"psnr_cb\"][\"mean\"] + i_data[\"pooled_metrics\"][\"psnr_cr\"][\"mean\"])/8\n",
    "command = \"ffprobe -v error -select_streams v:0 -show_entries format:stream -print_format json \" + path_dist\n",
    "cout = subprocess.run(command.split(), stdout=subprocess.PIPE, stderr=subprocess.STDOUT).stdout\n",
    "\n",
    "dict = json.loads(cout)\n",
    "file_name = str(dict['format']['filename']).split(\"/\")[-1]\n",
    "codec = str(dict['streams'][0]['codec_name'])\n",
    "width = int(dict['streams'][0]['width'])\n",
    "height = int(dict['streams'][0]['height']) \n",
    "fps = int(str(dict['streams'][0]['r_frame_rate']).split(\"/\")[0])\n",
    "cfr = int(file_name.split(\"_cf\")[1].split('.')[0])\n",
    "bitrate = int(dict['format']['bit_rate'])\n",
    "\n",
    "with open(filepath, 'r') as f:\n",
    "    o_data = json.load(f)\n",
    "o_data.append({\n",
    "    \"video_content\": source,\n",
    "    \"file_name\": file_name,\n",
    "    \"codec\": codec,\n",
    "    \"width\": width,\n",
    "    \"height\": height,\n",
    "    \"framerate\": fps,\n",
    "    \"cfr\": cfr,\n",
    "    \"bitrate\": bitrate,\n",
    "    \"vmaf\": vmaf,\n",
    "    \"psnr\": psnr\n",
    "})\n",
    "with open(filepath, 'w') as w:\n",
    "    json.dump(o_data, w, indent=4, separators=(',',': '))"
   ]
  },
  {
   "cell_type": "code",
   "execution_count": null,
   "id": "18b69d93",
   "metadata": {},
   "outputs": [],
   "source": []
  }
 ],
 "metadata": {
  "kernelspec": {
   "display_name": "Python 3 (ipykernel)",
   "language": "python",
   "name": "python3"
  },
  "language_info": {
   "codemirror_mode": {
    "name": "ipython",
    "version": 3
   },
   "file_extension": ".py",
   "mimetype": "text/x-python",
   "name": "python",
   "nbconvert_exporter": "python",
   "pygments_lexer": "ipython3",
   "version": "3.8.10"
  }
 },
 "nbformat": 4,
 "nbformat_minor": 5
}
